<mxfile modified="2020-11-30T09:01:33.250Z" host="app.diagrams.net" agent="5.0 (Windows NT 10.0; Win64; x64) AppleWebKit/537.36 (KHTML, like Gecko) Chrome/87.0.4280.67 Safari/537.36 Edg/87.0.664.47" etag="8qK05ol1AJrmZhlGQyBz" version="13.10.4" type="github">
  <diagram id="Ht1M8jgEwFfnCIfOTk4-" name="Page-1">
    <mxGraphModel dx="1038" dy="508" grid="1" gridSize="10" guides="1" tooltips="1" connect="1" arrows="1" fold="1" page="1" pageScale="1" pageWidth="1169" pageHeight="827" math="0" shadow="0">
      <root>
        <mxCell id="0" />
        <mxCell id="1" parent="0" />
        <mxCell id="Hn-1Lq3k62K_HD-4LMMU-6" value="" style="rounded=0;whiteSpace=wrap;html=1;fillColor=#d5e8d4;strokeColor=#82b366;" vertex="1" parent="1">
          <mxGeometry x="210" y="630" width="580" height="240" as="geometry" />
        </mxCell>
        <mxCell id="Hn-1Lq3k62K_HD-4LMMU-7" value="&lt;span style=&quot;font-size: 18px&quot;&gt;服务注册中心&lt;/span&gt;" style="shape=hexagon;perimeter=hexagonPerimeter2;whiteSpace=wrap;html=1;fixedSize=1;fillColor=#fff2cc;strokeColor=#d6b656;" vertex="1" parent="1">
          <mxGeometry x="390" y="650" width="150" height="80" as="geometry" />
        </mxCell>
        <mxCell id="Hn-1Lq3k62K_HD-4LMMU-8" value="&lt;span style=&quot;font-size: 18px&quot;&gt;服务注册中心&lt;/span&gt;" style="shape=hexagon;perimeter=hexagonPerimeter2;whiteSpace=wrap;html=1;fixedSize=1;fillColor=#fff2cc;strokeColor=#d6b656;" vertex="1" parent="1">
          <mxGeometry x="220" y="780" width="160" height="60" as="geometry" />
        </mxCell>
        <mxCell id="Hn-1Lq3k62K_HD-4LMMU-9" value="&lt;span style=&quot;font-size: 18px&quot;&gt;服务注册中心&lt;/span&gt;" style="shape=hexagon;perimeter=hexagonPerimeter2;whiteSpace=wrap;html=1;fixedSize=1;fillColor=#fff2cc;strokeColor=#d6b656;" vertex="1" parent="1">
          <mxGeometry x="540" y="780" width="150" height="60" as="geometry" />
        </mxCell>
        <mxCell id="Hn-1Lq3k62K_HD-4LMMU-10" value="&lt;font style=&quot;font-size: 15px&quot;&gt;服务描述&lt;/font&gt;" style="ellipse;whiteSpace=wrap;html=1;fillColor=#fff2cc;strokeColor=#d6b656;" vertex="1" parent="1">
          <mxGeometry x="530" y="640" width="95" height="40" as="geometry" />
        </mxCell>
        <mxCell id="Hn-1Lq3k62K_HD-4LMMU-11" value="&lt;font style=&quot;font-size: 15px&quot;&gt;服务描述&lt;/font&gt;" style="ellipse;whiteSpace=wrap;html=1;fillColor=#fff2cc;strokeColor=#d6b656;" vertex="1" parent="1">
          <mxGeometry x="680" y="820" width="95" height="40" as="geometry" />
        </mxCell>
        <mxCell id="Hn-1Lq3k62K_HD-4LMMU-12" value="&lt;font style=&quot;font-size: 15px&quot;&gt;服务&lt;/font&gt;" style="ellipse;whiteSpace=wrap;html=1;fillColor=#fff2cc;strokeColor=#d6b656;" vertex="1" parent="1">
          <mxGeometry x="680" y="760" width="95" height="40" as="geometry" />
        </mxCell>
        <mxCell id="Hn-1Lq3k62K_HD-4LMMU-22" value="" style="endArrow=classic;startArrow=classic;html=1;exitX=0.5;exitY=0;exitDx=0;exitDy=0;" edge="1" parent="1" source="Hn-1Lq3k62K_HD-4LMMU-8">
          <mxGeometry width="50" height="50" relative="1" as="geometry">
            <mxPoint x="340" y="740" as="sourcePoint" />
            <mxPoint x="390" y="690" as="targetPoint" />
          </mxGeometry>
        </mxCell>
        <mxCell id="Hn-1Lq3k62K_HD-4LMMU-23" value="" style="endArrow=classic;startArrow=classic;html=1;" edge="1" parent="1" target="Hn-1Lq3k62K_HD-4LMMU-9">
          <mxGeometry width="50" height="50" relative="1" as="geometry">
            <mxPoint x="380" y="810" as="sourcePoint" />
            <mxPoint x="430" y="760" as="targetPoint" />
          </mxGeometry>
        </mxCell>
        <mxCell id="Hn-1Lq3k62K_HD-4LMMU-24" value="" style="endArrow=classic;startArrow=classic;html=1;entryX=0.5;entryY=0;entryDx=0;entryDy=0;" edge="1" parent="1" target="Hn-1Lq3k62K_HD-4LMMU-9">
          <mxGeometry width="50" height="50" relative="1" as="geometry">
            <mxPoint x="540" y="690" as="sourcePoint" />
            <mxPoint x="590" y="640" as="targetPoint" />
          </mxGeometry>
        </mxCell>
        <mxCell id="Hn-1Lq3k62K_HD-4LMMU-25" value="&lt;font style=&quot;font-size: 18px&quot;&gt;发现&lt;/font&gt;" style="text;html=1;strokeColor=none;fillColor=none;align=center;verticalAlign=middle;whiteSpace=wrap;rounded=0;" vertex="1" parent="1">
          <mxGeometry x="300" y="720" width="40" height="20" as="geometry" />
        </mxCell>
        <mxCell id="Hn-1Lq3k62K_HD-4LMMU-26" value="&lt;font style=&quot;font-size: 18px&quot;&gt;发布&lt;/font&gt;" style="text;html=1;strokeColor=none;fillColor=none;align=center;verticalAlign=middle;whiteSpace=wrap;rounded=0;" vertex="1" parent="1">
          <mxGeometry x="584.5" y="720" width="40" height="20" as="geometry" />
        </mxCell>
        <mxCell id="Hn-1Lq3k62K_HD-4LMMU-27" value="&lt;span style=&quot;font-size: 18px&quot;&gt;绑定和调用&lt;/span&gt;" style="text;html=1;strokeColor=none;fillColor=none;align=center;verticalAlign=middle;whiteSpace=wrap;rounded=0;" vertex="1" parent="1">
          <mxGeometry x="405" y="790" width="120" height="20" as="geometry" />
        </mxCell>
      </root>
    </mxGraphModel>
  </diagram>
</mxfile>
